<?xml version="1.0" encoding="UTF-8" standalone="no"?>
<!-- Created with Inkscape (http://www.inkscape.org/) -->

<svg
   width="512"
   height="512"
   viewBox="0 0 512 512"
   version="1.1"
   id="svg5"
   inkscape:version="1.2.2 (b0a8486, 2022-12-01)"
   sodipodi:docname="icon_512_512.svg"
   xmlns:inkscape="http://www.inkscape.org/namespaces/inkscape"
   xmlns:sodipodi="http://sodipodi.sourceforge.net/DTD/sodipodi-0.dtd"
   xmlns="http://www.w3.org/2000/svg"
   xmlns:svg="http://www.w3.org/2000/svg">
  <sodipodi:namedview
     id="namedview7"
     pagecolor="#ffffff"
     bordercolor="#666666"
     borderopacity="1.0"
     inkscape:showpageshadow="2"
     inkscape:pageopacity="0.0"
     inkscape:pagecheckerboard="0"
     inkscape:deskcolor="#d1d1d1"
     inkscape:document-units="px"
     showgrid="false"
     inkscape:zoom="0.4609375"
     inkscape:cx="-65.084746"
     inkscape:cy="257.08475"
     inkscape:window-width="1440"
     inkscape:window-height="763"
     inkscape:window-x="0"
     inkscape:window-y="25"
     inkscape:window-maximized="1"
     inkscape:current-layer="layer1" />
  <defs
     id="defs2" />
  <g
     inkscape:label="Layer 1"
     inkscape:groupmode="layer"
     id="layer1">
    <path
       id="rect4439"
       clip-path="none"
       style="display:inline;fill:#000000;stroke:none;stroke-width:47.6676;stroke-miterlimit:4;stroke-dasharray:none;stroke-dashoffset:20.9021"
       d="M 6,6 V 205.99998 H 55.98424 V 55.99999 H 205.98423 V 6 Z m 299.99996,0 v 49.99999 h 149.99998 v 149.99999 h 49.98425 V 6 Z M 6,305.99996 V 506 H 205.98423 V 456.00001 H 55.98424 V 305.99996 Z m 449.99994,0 V 456.00001 H 305.99996 V 506 H 505.98419 V 305.99996 Z" />
    <g
       style="fill:#000000"
       id="g8411"
       transform="matrix(7.7969062,0,0,7.7969062,131.2495,131.2495)">
      <path
         d="M 32.032,16 C 32.032,7.499 25.355,0.528 16.96,0.031 16.787,0.012 16.614,-0.001 16.437,-0.001 c -0.052,0 -0.104,0.005 -0.156,0.007 C 16.188,0.004 16.095,-0.001 16,-0.001 7.16,-0.001 -0.032,7.177 -0.032,16 c 0,8.823 7.192,16.001 16.032,16.001 0.094,0 0.188,-0.006 0.281,-0.008 0.052,0.002 0.104,0.008 0.156,0.008 0.176,0 0.349,-0.012 0.523,-0.032 C 25.355,31.472 32.032,24.501 32.032,16 Z m -2.983,5.151 c -0.551,-0.16 -1.935,-0.507 -4.377,-0.794 0.202,-1.381 0.313,-2.84 0.313,-4.357 0,-1.196 -0.069,-2.354 -0.197,-3.469 3.094,-0.37 4.45,-0.835 4.54,-0.867 l -0.372,-1.05 c 0.695,1.659 1.08,3.478 1.08,5.386 0,1.818 -0.352,3.555 -0.987,5.151 z M 8.921,16 c 0,-1.119 0.074,-2.212 0.21,-3.263 1.621,0.127 3.561,0.222 5.839,0.243 v 6.939 C 12.751,19.94 10.856,20.03 9.261,20.153 9.041,18.834 8.921,17.438 8.921,15.999 Z M 16.967,2.132 c 2.452,0.711 4.552,4.115 5.492,8.628 -1.512,0.12 -3.332,0.209 -5.492,0.229 z m -1.996,0.024 v 8.832 c -2.136,-0.021 -3.965,-0.109 -5.502,-0.226 0.96,-4.457 3.076,-7.836 5.502,-8.606 z m 0,19.757 v 7.929 c -2.263,-0.718 -4.256,-3.705 -5.293,-7.719 1.492,-0.11 3.253,-0.189 5.292,-0.21 z m 1.996,7.955 v -7.955 c 2.061,0.02 3.814,0.102 5.288,0.217 -1.019,4.067 -3,7.076 -5.288,7.738 z m 0,-9.948 v -6.939 c 2.291,-0.021 4.218,-0.118 5.818,-0.25 0.131,1.053 0.203,2.147 0.203,3.268 0,1.442 -0.116,2.84 -0.329,4.16 -1.575,-0.128 -3.462,-0.219 -5.692,-0.24 z M 28.588,9.81 C 28.286,9.904 27.024,10.263 24.494,10.561 23.93,7.563 22.91,5 21.584,3.149 24.632,4.474 27.119,6.846 28.589,9.81 Z M 11.213,2.831 C 9.581,4.704 8.25,7.399 7.522,10.585 5.257,10.34 3.899,10.051 3.356,9.92 4.941,6.65 7.763,4.084 11.212,2.832 Z m -8.599,8.956 c 0.385,0.104 1.841,0.467 4.549,0.766 -0.155,1.107 -0.24,2.26 -0.24,3.447 0,1.509 0.136,2.96 0.383,4.334 C 4.981,20.585 3.551,20.886 2.91,21.04 2.303,19.474 1.966,17.776 1.966,15.999 c 0,-1.467 0.228,-2.883 0.649,-4.213 z m 1.17,11.099 c 0.727,-0.154 2.029,-0.39 3.956,-0.591 0.759,2.803 1.993,5.175 3.473,6.874 -3.16,-1.148 -5.79,-3.398 -7.429,-6.282 v 0 z m 17.799,5.963 c 1.195,-1.665 2.14,-3.907 2.728,-6.525 1.982,0.227 3.226,0.494 3.853,0.652 -1.5,2.596 -3.808,4.669 -6.581,5.873 z"
         id="path8402" />
    </g>
  </g>
</svg>
